<?xml version="1.0" standalone="no"?>
<!DOCTYPE svg PUBLIC "-//W3C//DTD SVG 20010904//EN"
 "http://www.w3.org/TR/2001/REC-SVG-20010904/DTD/svg10.dtd">
<svg version="1.0" xmlns="http://www.w3.org/2000/svg"
 width="900.000000pt" height="900.000000pt" viewBox="0 0 900.000000 900.000000"
 preserveAspectRatio="xMidYMid meet">

<g transform="translate(0.000000,900.000000) scale(0.100000,-0.100000)"
fill="#000000" stroke="none">
<path d="M4230 8990 c-14 -4 -53 -8 -88 -9 -72 -1 -266 -25 -392 -47 -115 -21
-359 -73 -390 -83 -14 -5 -43 -14 -65 -19 -81 -22 -303 -95 -405 -134 -489
-185 -959 -470 -1360 -824 -825 -729 -1335 -1684 -1490 -2789 -45 -325 -46
-844 -1 -1165 101 -713 332 -1332 714 -1905 394 -593 908 -1072 1527 -1424 65
-37 362 -186 437 -219 764 -337 1691 -449 2523 -306 268 47 437 88 665 163
543 177 1061 469 1520 854 110 92 368 351 477 477 336 389 602 828 785 1299
24 64 62 168 83 231 35 103 48 148 95 325 13 49 56 256 75 365 65 362 73 891
20 1300 -46 357 -139 716 -274 1064 -69 175 -184 419 -261 551 -19 33 -46 80
-59 105 -37 68 -188 291 -281 415 -235 310 -550 625 -859 860 -461 349 -957
597 -1501 750 -33 9 -71 21 -85 25 -14 5 -50 14 -80 20 -30 7 -82 18 -115 25
-175 40 -353 67 -560 87 -140 13 -622 19 -655 8z m658 -2720 c246 -49 464 -94
484 -100 43 -12 75 -48 84 -96 5 -28 -47 -330 -86 -499 -8 -33 -61 -305 -120
-615 -6 -30 -15 -73 -20 -95 -5 -22 -37 -182 -70 -355 -33 -173 -64 -333 -69
-355 -22 -98 -33 -156 -81 -405 -28 -146 -54 -283 -59 -305 -20 -91 -33 -153
-87 -430 -31 -159 -63 -303 -71 -318 -7 -15 -28 -37 -46 -48 -36 -22 -53 -21
-222 13 -55 11 -120 24 -145 29 -272 51 -632 129 -657 143 -37 19 -63 62 -63
104 0 16 11 83 24 148 14 66 57 283 96 484 39 201 75 383 80 405 5 22 32 159
60 305 28 146 55 283 60 305 5 22 37 182 71 355 154 798 268 1352 280 1367 20
23 71 53 92 53 11 0 220 -40 465 -90z m-1268 -154 c462 -233 470 -238 470
-318 0 -31 -77 -192 -389 -811 -213 -424 -561 -1115 -771 -1534 l-383 -763
-44 -21 c-29 -14 -52 -19 -71 -14 -15 3 -216 101 -447 216 -421 211 -474 243
-476 292 -3 54 11 87 143 352 473 944 1374 2735 1389 2761 25 41 74 66 119 59
19 -2 226 -101 460 -219z m3081 177 c64 -38 59 88 59 -1797 0 -968 -4 -1725
-9 -1738 -5 -13 -21 -34 -36 -48 l-27 -25 -496 -3 c-468 -2 -499 -1 -531 16
-19 10 -43 34 -53 53 -17 32 -18 107 -18 1742 0 1880 -4 1756 62 1797 32 19
49 20 526 20 448 0 497 -2 523 -17z"/>
</g>
</svg>
